# xmcd
#
# Track frame offsets:
# 150
# 32339
# 44668
# 57818
# 77030
# 96106
# 108666
# 131078
# 153797
# 169952
# 189718
# 203953
# 219639
# 237011
# 256878
# 273442
# 295776
# 309337
#
# Disc length: 4316 seconds
#
#
# Revision: 0
# Processed by: cddbd v1.5PL3 Copyright (c) Steve Scherf et al.
# Submitted via: FreeRIP 2.00 
#
DISCID=fe10da12
DTITLE=Eric Clapton - The Cream of Eric Clapton
DYEAR=1900
DGENRE=Rock/Blues
TTITLE0=Layla
TTITLE1=Badge
TTITLE2=I Feel Free
TTITLE3=Sunshine of Your Love
TTITLE4=Crossroads
TTITLE5=Strangebrew
TTITLE6=White Room
TTITLE7=Bell Bottom Blues
TTITLE8=Cocaine
TTITLE9=I Shot the Sheriff
TTITLE10=After Midnight
TTITLE11=Swing Low Sweet Chariot
TTITLE12=Lay Down Sally
TTITLE13=Knockin' on Heavens Door
TTITLE14=Wonderful Tonight
TTITLE15=Let it Grow
TTITLE16=Promise
TTITLE17=I Can't Stand It
EXTD=
EXTT0=Derek and the Dominos
EXTT1=Cream
EXTT2=Cream
EXTT3=Cream
EXTT4=Cream
EXTT5=Cream
EXTT6=Cream
EXTT7=Derek and the Dominos
EXTT8=Eric Clapton
EXTT9=Eric Clapton
EXTT10=Eric Clapton
EXTT11=Eric Clapton
EXTT12=Eric Clapton
EXTT13=Eric Clapton
EXTT14=Eric Clapton
EXTT15=Eric Clapton
EXTT16=Eric Clapton
EXTT17=Eric Clapton
PLAYORDER=
